{
  "asset": {
    "generator": "UnityGltf 2.19.3, Unity 6000.3.13f1, URP",
    "version": "2.0"
  },
  "extensionsUsed": [
    "KHR_materials_unlit",
    "KHR_texture_transform"
  ],
  "extensionsRequired": [
    "KHR_materials_unlit"
  ],
  "scene": 0,
  "scenes": [
    {
      "nodes": [
        0
      ],
      "name": "Wrapper"
    }
  ],
  "accessors": [
    {
      "bufferView": 0,
      "componentType": 5126,
      "count": 4,
      "type": "VEC3",
      "max": [
        0.5,
        0.5,
        3.0616168005906746E-17
      ],
      "min": [
        -0.5,
        -0.5,
        -3.0616168005906746E-17
      ]
    },
    {
      "bufferView": 1,
      "componentType": 5126,
      "count": 4,
      "type": "VEC3",
      "max": [
        0.0,
        0.0,
        -1.0
      ],
      "min": [
        0.0,
        0.0,
        -1.0
      ]
    },
    {
      "bufferView": 2,
      "componentType": 5126,
      "count": 4,
      "type": "VEC4",
      "max": [
        -1.0,
        0.0,
        0.0,
        1.0
      ],
      "min": [
        -1.0,
        0.0,
        0.0,
        1.0
      ]
    },
    {
      "bufferView": 3,
      "componentType": 5126,
      "count": 4,
      "type": "VEC2",
      "max": [
        1.0,
        1.0
      ],
      "min": [
        0.0,
        0.0
      ]
    },
    {
      "bufferView": 4,
      "componentType": 5121,
      "count": 6,
      "type": "SCALAR",
      "max": [
        3.0
      ],
      "min": [
        0.0
      ]
    },
    {
      "bufferView": 5,
      "componentType": 5126,
      "count": 99,
      "type": "SCALAR",
      "max": [
        3.2833333015441895
      ],
      "min": [
        0.0
      ]
    },
    {
      "bufferView": 6,
      "componentType": 5126,
      "count": 99,
      "type": "VEC3",
      "max": [
        0.550000011920929,
        0.550000011920929,
        1.0
      ],
      "min": [
        0.004999999888241291,
        0.004999999888241291,
        1.0
      ]
    }
  ],
  "animations": [
    {
      "channels": [
        {
          "sampler": 0,
          "target": {
            "node": 2,
            "path": "scale"
          }
        }
      ],
      "samplers": [
        {
          "input": 5,
          "interpolation": "LINEAR",
          "output": 6
        }
      ],
      "name": "Layer1-Appear"
    }
  ],
  "buffers": [
    {
      "uri": "Wrapper.bin",
      "byteLength": 1784
    }
  ],
  "bufferViews": [
    {
      "buffer": 0,
      "byteLength": 48,
      "byteStride": 12,
      "target": 34962
    },
    {
      "buffer": 0,
      "byteOffset": 48,
      "byteLength": 48,
      "byteStride": 12,
      "target": 34962
    },
    {
      "buffer": 0,
      "byteOffset": 96,
      "byteLength": 64,
      "target": 34962
    },
    {
      "buffer": 0,
      "byteOffset": 160,
      "byteLength": 32,
      "target": 34962
    },
    {
      "buffer": 0,
      "byteOffset": 192,
      "byteLength": 8,
      "target": 34963
    },
    {
      "buffer": 0,
      "byteOffset": 200,
      "byteLength": 396
    },
    {
      "buffer": 0,
      "byteOffset": 596,
      "byteLength": 1188
    }
  ],
  "images": [
    {
      "uri": "Marker.jpg",
      "name": "Marker"
    },
    {
      "uri": "Layer1.png",
      "name": "Layer1"
    }
  ],
  "materials": [
    {
      "pbrMetallicRoughness": {
        "baseColorTexture": {
          "index": 0,
          "extensions": {
            "KHR_texture_transform": {
              "texCoord": 0
            }
          }
        }
      },
      "alphaMode": "BLEND",
      "doubleSided": true,
      "name": "Marker",
      "extensions": {
        "KHR_materials_unlit": {}
      }
    },
    {
      "pbrMetallicRoughness": {
        "baseColorTexture": {
          "index": 1,
          "extensions": {
            "KHR_texture_transform": {
              "texCoord": 0
            }
          }
        }
      },
      "alphaMode": "BLEND",
      "doubleSided": true,
      "name": "Layer1",
      "extensions": {
        "KHR_materials_unlit": {}
      }
    }
  ],
  "meshes": [
    {
      "primitives": [
        {
          "attributes": {
            "POSITION": 0,
            "NORMAL": 1,
            "TANGENT": 2,
            "TEXCOORD_0": 3
          },
          "indices": 4,
          "material": 0
        }
      ],
      "name": "Background"
    },
    {
      "primitives": [
        {
          "attributes": {
            "POSITION": 0,
            "NORMAL": 1,
            "TANGENT": 2,
            "TEXCOORD_0": 3
          },
          "indices": 4,
          "material": 1
        }
      ],
      "name": "Layer1"
    }
  ],
  "nodes": [
    {
      "children": [
        1
      ],
      "scale": [
        150.0,
        150.0,
        150.0
      ],
      "name": "Wrapper"
    },
    {
      "children": [
        2
      ],
      "mesh": 0,
      "scale": [
        1.0,
        1.5,
        1.0
      ],
      "name": "Background"
    },
    {
      "mesh": 1,
      "scale": [
        0.005,
        0.005,
        1.0
      ],
      "translation": [
        0.129,
        0.242,
        -0.055
      ],
      "name": "Layer1"
    }
  ],
  "samplers": [
    {
      "minFilter": 9987
    }
  ],
  "textures": [
    {
      "sampler": 0,
      "source": 0,
      "name": "Marker"
    },
    {
      "sampler": 0,
      "source": 1,
      "name": "Layer1"
    }
  ]
}