{
  "asset": {
    "generator": "UnityGltf 2.19.3, Unity 6000.3.13f1, URP",
    "version": "2.0"
  },
  "extensionsUsed": [
    "KHR_materials_unlit",
    "KHR_texture_transform"
  ],
  "extensionsRequired": [
    "KHR_materials_unlit"
  ],
  "scene": 0,
  "scenes": [
    {
      "nodes": [
        0
      ],
      "name": "Wrapper"
    }
  ],
  "accessors": [
    {
      "bufferView": 0,
      "componentType": 5126,
      "count": 4,
      "type": "VEC3",
      "max": [
        0.5,
        0.5,
        3.0616168005906746E-17
      ],
      "min": [
        -0.5,
        -0.5,
        -3.0616168005906746E-17
      ]
    },
    {
      "bufferView": 1,
      "componentType": 5126,
      "count": 4,
      "type": "VEC3",
      "max": [
        0.0,
        0.0,
        -1.0
      ],
      "min": [
        0.0,
        0.0,
        -1.0
      ]
    },
    {
      "bufferView": 2,
      "componentType": 5126,
      "count": 4,
      "type": "VEC4",
      "max": [
        -1.0,
        0.0,
        0.0,
        1.0
      ],
      "min": [
        -1.0,
        0.0,
        0.0,
        1.0
      ]
    },
    {
      "bufferView": 3,
      "componentType": 5126,
      "count": 4,
      "type": "VEC2",
      "max": [
        1.0,
        1.0
      ],
      "min": [
        0.0,
        0.0
      ]
    },
    {
      "bufferView": 4,
      "componentType": 5121,
      "count": 6,
      "type": "SCALAR",
      "max": [
        3.0
      ],
      "min": [
        0.0
      ]
    },
    {
      "bufferView": 5,
      "componentType": 5126,
      "count": 76,
      "type": "VEC3",
      "max": [
        7.9863061904907227,
        0.0,
        0.0
      ],
      "min": [
        0.0,
        -1.571002721786499,
        0.0
      ]
    },
    {
      "bufferView": 6,
      "componentType": 5126,
      "count": 76,
      "type": "VEC3",
      "max": [
        0.0,
        0.0,
        -1.0
      ],
      "min": [
        0.0,
        0.0,
        -1.0
      ]
    },
    {
      "bufferView": 7,
      "componentType": 5126,
      "count": 76,
      "type": "VEC4",
      "max": [
        1.0,
        0.0,
        0.0,
        -1.0
      ],
      "min": [
        1.0,
        0.0,
        0.0,
        -1.0
      ]
    },
    {
      "bufferView": 8,
      "componentType": 5126,
      "count": 76,
      "type": "VEC2",
      "max": [
        0.99310302734375,
        1.0
      ],
      "min": [
        0.0,
        0.05474853515625
      ]
    },
    {
      "bufferView": 9,
      "componentType": 5126,
      "count": 76,
      "type": "VEC2",
      "max": [
        1.0,
        1.0
      ],
      "min": [
        0.0,
        0.0
      ]
    },
    {
      "bufferView": 10,
      "componentType": 5126,
      "count": 76,
      "type": "VEC4",
      "max": [
        1.0,
        1.0,
        1.0,
        1.0
      ],
      "min": [
        0.0,
        0.0,
        0.0,
        1.0
      ]
    },
    {
      "bufferView": 11,
      "componentType": 5121,
      "count": 114,
      "type": "SCALAR",
      "max": [
        75.0
      ],
      "min": [
        0.0
      ]
    },
    {
      "bufferView": 12,
      "componentType": 5126,
      "count": 76,
      "type": "VEC3",
      "max": [
        7.9863061904907227,
        0.0,
        0.0
      ],
      "min": [
        0.0,
        -1.571002721786499,
        0.0
      ]
    },
    {
      "bufferView": 13,
      "componentType": 5126,
      "count": 76,
      "type": "VEC3",
      "max": [
        0.0,
        0.0,
        -1.0
      ],
      "min": [
        0.0,
        0.0,
        -1.0
      ]
    },
    {
      "bufferView": 14,
      "componentType": 5126,
      "count": 76,
      "type": "VEC4",
      "max": [
        1.0,
        0.0,
        0.0,
        -1.0
      ],
      "min": [
        1.0,
        0.0,
        0.0,
        -1.0
      ]
    },
    {
      "bufferView": 15,
      "componentType": 5126,
      "count": 76,
      "type": "VEC2",
      "max": [
        0.99310302734375,
        1.0
      ],
      "min": [
        0.0,
        0.05474853515625
      ]
    },
    {
      "bufferView": 16,
      "componentType": 5126,
      "count": 76,
      "type": "VEC2",
      "max": [
        1.0,
        1.0
      ],
      "min": [
        0.0,
        0.0
      ]
    },
    {
      "bufferView": 17,
      "componentType": 5126,
      "count": 76,
      "type": "VEC4",
      "max": [
        1.0,
        1.0,
        1.0,
        1.0
      ],
      "min": [
        0.0,
        0.0,
        0.0,
        1.0
      ]
    },
    {
      "bufferView": 18,
      "componentType": 5121,
      "count": 114,
      "type": "SCALAR",
      "max": [
        75.0
      ],
      "min": [
        0.0
      ]
    },
    {
      "bufferView": 19,
      "componentType": 5126,
      "count": 64,
      "type": "VEC3",
      "max": [
        6.0647764205932617,
        0.62205672264099121,
        0.0
      ],
      "min": [
        -5.9904565811157227,
        -0.59654802083969116,
        0.0
      ]
    },
    {
      "bufferView": 20,
      "componentType": 5126,
      "count": 64,
      "type": "VEC3",
      "max": [
        0.0,
        0.0,
        -1.0
      ],
      "min": [
        0.0,
        0.0,
        -1.0
      ]
    },
    {
      "bufferView": 21,
      "componentType": 5126,
      "count": 64,
      "type": "VEC4",
      "max": [
        1.0,
        0.0,
        0.0,
        -1.0
      ],
      "min": [
        1.0,
        0.0,
        0.0,
        -1.0
      ]
    },
    {
      "bufferView": 22,
      "componentType": 5126,
      "count": 64,
      "type": "VEC2",
      "max": [
        0.991455078125,
        1.0
      ],
      "min": [
        0.0,
        0.167724609375
      ]
    },
    {
      "bufferView": 23,
      "componentType": 5126,
      "count": 64,
      "type": "VEC2",
      "max": [
        1.0,
        1.0
      ],
      "min": [
        0.0,
        0.0
      ]
    },
    {
      "bufferView": 24,
      "componentType": 5126,
      "count": 64,
      "type": "VEC4",
      "max": [
        0.0,
        0.0,
        0.0,
        1.0
      ],
      "min": [
        0.0,
        0.0,
        0.0,
        0.0
      ]
    },
    {
      "bufferView": 25,
      "componentType": 5121,
      "count": 96,
      "type": "SCALAR",
      "max": [
        63.0
      ],
      "min": [
        0.0
      ]
    },
    {
      "bufferView": 26,
      "componentType": 5126,
      "count": 80,
      "type": "SCALAR",
      "max": [
        13.716666221618652
      ],
      "min": [
        0.0
      ]
    },
    {
      "bufferView": 27,
      "componentType": 5126,
      "count": 80,
      "type": "VEC3",
      "max": [
        0.550000011920929,
        0.550000011920929,
        1.0
      ],
      "min": [
        0.004999999888241291,
        0.004999999888241291,
        1.0
      ]
    },
    {
      "bufferView": 28,
      "componentType": 5126,
      "count": 100,
      "type": "SCALAR",
      "max": [
        13.716666221618652
      ],
      "min": [
        0.0
      ]
    },
    {
      "bufferView": 29,
      "componentType": 5126,
      "count": 100,
      "type": "VEC3",
      "max": [
        0.5,
        0.5,
        1.0
      ],
      "min": [
        0.004999999888241291,
        0.004999999888241291,
        1.0
      ]
    },
    {
      "bufferView": 30,
      "componentType": 5126,
      "count": 132,
      "type": "SCALAR",
      "max": [
        13.716666221618652
      ],
      "min": [
        0.0
      ]
    },
    {
      "bufferView": 31,
      "componentType": 5126,
      "count": 132,
      "type": "VEC3",
      "max": [
        0.40999999642372131,
        0.40999999642372131,
        0.40999999642372131
      ],
      "min": [
        0.004999999888241291,
        0.004999999888241291,
        0.004999999888241291
      ]
    }
  ],
  "animations": [
    {
      "channels": [
        {
          "sampler": 0,
          "target": {
            "node": 3,
            "path": "scale"
          }
        },
        {
          "sampler": 1,
          "target": {
            "node": 5,
            "path": "scale"
          }
        },
        {
          "sampler": 2,
          "target": {
            "node": 7,
            "path": "scale"
          }
        }
      ],
      "samplers": [
        {
          "input": 26,
          "interpolation": "LINEAR",
          "output": 27
        },
        {
          "input": 28,
          "interpolation": "LINEAR",
          "output": 29
        },
        {
          "input": 30,
          "interpolation": "LINEAR",
          "output": 31
        }
      ],
      "name": "LayerAppears"
    }
  ],
  "buffers": [
    {
      "uri": "Wrapper.bin",
      "byteLength": 21072
    }
  ],
  "bufferViews": [
    {
      "buffer": 0,
      "byteLength": 48,
      "byteStride": 12,
      "target": 34962
    },
    {
      "buffer": 0,
      "byteOffset": 48,
      "byteLength": 48,
      "byteStride": 12,
      "target": 34962
    },
    {
      "buffer": 0,
      "byteOffset": 96,
      "byteLength": 64,
      "target": 34962
    },
    {
      "buffer": 0,
      "byteOffset": 160,
      "byteLength": 32,
      "target": 34962
    },
    {
      "buffer": 0,
      "byteOffset": 192,
      "byteLength": 8,
      "target": 34963
    },
    {
      "buffer": 0,
      "byteOffset": 200,
      "byteLength": 912,
      "byteStride": 12,
      "target": 34962
    },
    {
      "buffer": 0,
      "byteOffset": 1112,
      "byteLength": 912,
      "byteStride": 12,
      "target": 34962
    },
    {
      "buffer": 0,
      "byteOffset": 2024,
      "byteLength": 1216,
      "target": 34962
    },
    {
      "buffer": 0,
      "byteOffset": 3240,
      "byteLength": 608,
      "target": 34962
    },
    {
      "buffer": 0,
      "byteOffset": 3848,
      "byteLength": 608,
      "target": 34962
    },
    {
      "buffer": 0,
      "byteOffset": 4456,
      "byteLength": 1216,
      "target": 34962
    },
    {
      "buffer": 0,
      "byteOffset": 5672,
      "byteLength": 116,
      "target": 34963
    },
    {
      "buffer": 0,
      "byteOffset": 5788,
      "byteLength": 912,
      "byteStride": 12,
      "target": 34962
    },
    {
      "buffer": 0,
      "byteOffset": 6700,
      "byteLength": 912,
      "byteStride": 12,
      "target": 34962
    },
    {
      "buffer": 0,
      "byteOffset": 7612,
      "byteLength": 1216,
      "target": 34962
    },
    {
      "buffer": 0,
      "byteOffset": 8828,
      "byteLength": 608,
      "target": 34962
    },
    {
      "buffer": 0,
      "byteOffset": 9436,
      "byteLength": 608,
      "target": 34962
    },
    {
      "buffer": 0,
      "byteOffset": 10044,
      "byteLength": 1216,
      "target": 34962
    },
    {
      "buffer": 0,
      "byteOffset": 11260,
      "byteLength": 116,
      "target": 34963
    },
    {
      "buffer": 0,
      "byteOffset": 11376,
      "byteLength": 768,
      "byteStride": 12,
      "target": 34962
    },
    {
      "buffer": 0,
      "byteOffset": 12144,
      "byteLength": 768,
      "byteStride": 12,
      "target": 34962
    },
    {
      "buffer": 0,
      "byteOffset": 12912,
      "byteLength": 1024,
      "target": 34962
    },
    {
      "buffer": 0,
      "byteOffset": 13936,
      "byteLength": 512,
      "target": 34962
    },
    {
      "buffer": 0,
      "byteOffset": 14448,
      "byteLength": 512,
      "target": 34962
    },
    {
      "buffer": 0,
      "byteOffset": 14960,
      "byteLength": 1024,
      "target": 34962
    },
    {
      "buffer": 0,
      "byteOffset": 15984,
      "byteLength": 96,
      "target": 34963
    },
    {
      "buffer": 0,
      "byteOffset": 16080,
      "byteLength": 320
    },
    {
      "buffer": 0,
      "byteOffset": 16400,
      "byteLength": 960
    },
    {
      "buffer": 0,
      "byteOffset": 17360,
      "byteLength": 400
    },
    {
      "buffer": 0,
      "byteOffset": 17760,
      "byteLength": 1200
    },
    {
      "buffer": 0,
      "byteOffset": 18960,
      "byteLength": 528
    },
    {
      "buffer": 0,
      "byteOffset": 19488,
      "byteLength": 1584
    }
  ],
  "images": [
    {
      "uri": "Marker.jpg",
      "name": "Marker"
    },
    {
      "uri": "Layer1.png",
      "name": "Layer1"
    },
    {
      "uri": "3.png",
      "name": "3"
    },
    {
      "uri": "Layer2.png",
      "name": "Layer2"
    },
    {
      "uri": "Layer3.png",
      "name": "Layer3"
    }
  ],
  "materials": [
    {
      "pbrMetallicRoughness": {
        "baseColorTexture": {
          "index": 0,
          "extensions": {
            "KHR_texture_transform": {
              "texCoord": 0
            }
          }
        }
      },
      "alphaMode": "BLEND",
      "doubleSided": true,
      "name": "Marker",
      "extensions": {
        "KHR_materials_unlit": {}
      }
    },
    {
      "pbrMetallicRoughness": {
        "baseColorTexture": {
          "index": 1,
          "extensions": {
            "KHR_texture_transform": {
              "texCoord": 0
            }
          }
        }
      },
      "alphaMode": "BLEND",
      "doubleSided": true,
      "name": "Layer1",
      "extensions": {
        "KHR_materials_unlit": {}
      }
    },
    {
      "pbrMetallicRoughness": {
        "baseColorTexture": {
          "index": 2
        }
      },
      "alphaMode": "BLEND",
      "name": "LiberationSans SDF Material",
      "extensions": {
        "KHR_materials_unlit": {}
      }
    },
    {
      "pbrMetallicRoughness": {
        "baseColorTexture": {
          "index": 3,
          "extensions": {
            "KHR_texture_transform": {
              "texCoord": 0
            }
          }
        }
      },
      "alphaMode": "BLEND",
      "doubleSided": true,
      "name": "Layer2",
      "extensions": {
        "KHR_materials_unlit": {}
      }
    },
    {
      "pbrMetallicRoughness": {
        "baseColorTexture": {
          "index": 4,
          "extensions": {
            "KHR_texture_transform": {
              "texCoord": 0
            }
          }
        }
      },
      "alphaMode": "BLEND",
      "doubleSided": true,
      "name": "Layer3",
      "extensions": {
        "KHR_materials_unlit": {}
      }
    }
  ],
  "meshes": [
    {
      "primitives": [
        {
          "attributes": {
            "POSITION": 0,
            "NORMAL": 1,
            "TANGENT": 2,
            "TEXCOORD_0": 3
          },
          "indices": 4,
          "material": 0
        }
      ],
      "name": "Background"
    },
    {
      "primitives": [
        {
          "attributes": {
            "POSITION": 0,
            "NORMAL": 1,
            "TANGENT": 2,
            "TEXCOORD_0": 3
          },
          "indices": 4,
          "material": 1
        }
      ],
      "name": "Layer1"
    },
    {
      "primitives": [
        {
          "attributes": {
            "POSITION": 5,
            "NORMAL": 6,
            "TANGENT": 7,
            "TEXCOORD_0": 8,
            "TEXCOORD_1": 9,
            "COLOR_0": 10
          },
          "indices": 11,
          "material": 2
        }
      ],
      "name": "TextLayer1"
    },
    {
      "primitives": [
        {
          "attributes": {
            "POSITION": 0,
            "NORMAL": 1,
            "TANGENT": 2,
            "TEXCOORD_0": 3
          },
          "indices": 4,
          "material": 3
        }
      ],
      "name": "Layer2"
    },
    {
      "primitives": [
        {
          "attributes": {
            "POSITION": 12,
            "NORMAL": 13,
            "TANGENT": 14,
            "TEXCOORD_0": 15,
            "TEXCOORD_1": 16,
            "COLOR_0": 17
          },
          "indices": 18,
          "material": 2
        }
      ],
      "name": "TextLayer1"
    },
    {
      "primitives": [
        {
          "attributes": {
            "POSITION": 0,
            "NORMAL": 1,
            "TANGENT": 2,
            "TEXCOORD_0": 3
          },
          "indices": 4,
          "material": 4
        }
      ],
      "name": "Layer3"
    },
    {
      "primitives": [
        {
          "attributes": {
            "POSITION": 19,
            "NORMAL": 20,
            "TANGENT": 21,
            "TEXCOORD_0": 22,
            "TEXCOORD_1": 23,
            "COLOR_0": 24
          },
          "indices": 25,
          "material": 2
        }
      ],
      "name": "Text (TMP)"
    }
  ],
  "nodes": [
    {
      "children": [
        1
      ],
      "name": "Wrapper"
    },
    {
      "children": [
        2
      ],
      "mesh": 0,
      "scale": [
        1.0,
        1.5,
        1.0
      ],
      "name": "Background"
    },
    {
      "children": [
        3,
        5,
        7
      ],
      "name": "IceCoreAnimator"
    },
    {
      "children": [
        4
      ],
      "mesh": 1,
      "scale": [
        0.005,
        0.005,
        1.0
      ],
      "translation": [
        0.129,
        0.242000014,
        -0.06
      ],
      "name": "Layer1"
    },
    {
      "mesh": 2,
      "scale": [
        0.07,
        0.07,
        0.07
      ],
      "translation": [
        -0.112,
        0.1826,
        -0.012
      ],
      "name": "TextLayer1"
    },
    {
      "children": [
        6
      ],
      "mesh": 3,
      "scale": [
        0.005,
        0.005,
        1.0
      ],
      "translation": [
        -0.075,
        -0.252,
        -0.193
      ],
      "name": "Layer2"
    },
    {
      "mesh": 4,
      "scale": [
        0.07711829,
        0.07711829,
        0.0701075345
      ],
      "translation": [
        -0.442,
        0.0878,
        -0.038
      ],
      "name": "TextLayer1"
    },
    {
      "children": [
        8
      ],
      "mesh": 5,
      "rotation": [
        -0.0007722805,
        -0.00031833828,
        0.0822084546,
        0.9966148
      ],
      "scale": [
        0.005,
        0.005,
        0.005
      ],
      "translation": [
        0.013,
        -0.006,
        -0.028
      ],
      "name": "Layer3"
    },
    {
      "mesh": 6,
      "rotation": [
        0.0,
        -8.731149E-11,
        -0.5017898,
        0.864989638
      ],
      "scale": [
        0.05,
        0.05,
        0.05
      ],
      "translation": [
        0.07,
        0.042,
        0.0
      ],
      "name": "Text (TMP)"
    }
  ],
  "samplers": [
    {
      "minFilter": 9987
    },
    {
      "minFilter": 9987,
      "wrapS": 33071,
      "wrapT": 33071
    }
  ],
  "textures": [
    {
      "sampler": 0,
      "source": 0,
      "name": "Marker"
    },
    {
      "sampler": 0,
      "source": 1,
      "name": "Layer1"
    },
    {
      "sampler": 1,
      "source": 2,
      "name": "3"
    },
    {
      "sampler": 0,
      "source": 3,
      "name": "Layer2"
    },
    {
      "sampler": 0,
      "source": 4,
      "name": "Layer3"
    }
  ]
}